HIERARCHY
ROOT Hips
{
    OFFSET 13.00174617767334 94.45281600952148 -18.407718658447266
    CHANNELS 6 Xposition Yposition Zposition Zrotation Xrotation Yrotation
    JOINT RightUpLeg
    {
        OFFSET -13.00174617767334 0.0 0.0
        CHANNELS 3 Zrotation Xrotation Yrotation
        JOINT RightLeg
        {
            OFFSET 0.0 -48.43352127075195 0.0
            CHANNELS 3 Zrotation Xrotation Yrotation
            JOINT RightFoot
            {
                OFFSET 0.0 -46.01929473876953 0.0
                CHANNELS 3 Zrotation Xrotation Yrotation
                End Site
                {
                    OFFSET 0.0 0.0 18.407718658447266
                }
            }
        }
    }
    JOINT LeftUpLeg
    {
        OFFSET 13.00174617767334 0.0 0.0
        CHANNELS 3 Zrotation Xrotation Yrotation
        JOINT LeftLeg
        {
            OFFSET 0.0 -48.43352127075195 0.0
            CHANNELS 3 Zrotation Xrotation Yrotation
            JOINT LeftFoot
            {
                OFFSET 0.0 -46.01929473876953 0.0
                CHANNELS 3 Zrotation Xrotation Yrotation
                End Site
                {
                    OFFSET 0.0 0.0 18.407718658447266
                }
            }
        }
    }
    JOINT Spine
    {
        OFFSET 0.0 25.340370178222656 0.0
        CHANNELS 3 Zrotation Xrotation Yrotation
        JOINT Spine3
        {
            OFFSET 0.0 25.669919967651367 0.0
            CHANNELS 3 Zrotation Xrotation Yrotation
            JOINT Neck
            {
                OFFSET 0.0 11.419474601745605 0.0
                CHANNELS 3 Zrotation Xrotation Yrotation
                End Site
                {
                    OFFSET 0.0 4.5677900314331055 0.0
                }
            }
            JOINT LeftArm
            {
                OFFSET 13.669811248779297 0.0 0.0
                CHANNELS 3 Zrotation Xrotation Yrotation
                JOINT LeftForeArm
                {
                    OFFSET 29.090198516845703 0.0 0.0
                    CHANNELS 3 Zrotation Xrotation Yrotation
                    JOINT LeftHand
                    {
                        OFFSET 21.736988067626953 0.0 0.0
                        CHANNELS 3 Zrotation Xrotation Yrotation
                        End Site
                        {
                            OFFSET 8.694795608520508 0.0 0.0
                        }
                    }
                }
            }
            JOINT RightArm
            {
                OFFSET -13.669811248779297 0.0 0.0
                CHANNELS 3 Zrotation Xrotation Yrotation
                JOINT RightForeArm
                {
                    OFFSET -29.090198516845703 0.0 0.0
                    CHANNELS 3 Zrotation Xrotation Yrotation
                    JOINT RightHand
                    {
                        OFFSET -21.736988067626953 0.0 0.0
                        CHANNELS 3 Zrotation Xrotation Yrotation
                        End Site
                        {
                            OFFSET -8.694795608520508 0.0 0.0
                        }
                    }
                }
            }
        }
    }
}
MOTION
Frames: 9
Frame Time: 0.03333333333333333
6.0247519286349416e-05 95.20938110351562 -0.000880747043993324 0.6148120849145942 -12.009914536044146 -4.559598279467365 -2.3819754719240613 11.12107690126167 -0.9302986213707879 -15.024874351357228 25.063969359917422 4.407248497373484 -1.5902773407317582e-15 9.93923337957349e-17 -3.9756933518293955e-16 -0.5076276938336315 16.74486171550708 -1.9418473440335178 -3.934034605300581 6.177345198537505 -0.26888212995913086 8.620910738379216e-35 2.4848083448933725e-17 -3.975693351829396e-16 -0.7567926700941552 18.803513017755456 -2.0864206498751603 -2.5529925179956352e-08 -1.005834287800147e-07 1.1157352510225196 14.01699630073863 -2.8985292856979186 173.96333562225172 119.36178756671171 11.934174449875853 -158.3338307109595 1.2118074792439196e-06 2.628186944556736e-06 107.38229490077711 0.0 0.0 6.3611093629270335e-15 -128.01920391316492 -44.833879382223195 137.8485306084836 -1.2287666568561845e-06 5.304066333518276e-06 -110.2833734275594 0.0 0.0 0.0
8.237079600803554e-05 95.20938110351562 -0.0008388029527850449 0.9647064587281147 -11.224033057977456 -3.4326971008067977 -2.8568119802938066 11.063220253240697 -0.88928470795783 -13.549855919883406 23.001390985380457 3.5496454712185432 -1.5902773407317584e-15 3.1805546814635168e-15 -7.951386703658792e-16 -0.263926571782745 15.812206094962308 -1.9827119030424438 -3.4570323736966464 5.903825927526054 -0.36194650912477666 -1.987846675914698e-16 -1.2424041724466862e-17 3.4787316828507215e-16 -1.8983732911446214 17.627957252318264 -1.6987078138378957 -4.557321138542897e-08 1.9087155987347428e-07 2.122862413343228 13.753770860580083 -2.8585840429951914 172.6960574963617 117.8469774340765 12.487280945739121 -158.44474010553222 4.537385604864469e-06 7.546640167958967e-07 108.16967593797877 0.0 0.0 0.0 -129.54540433957771 -47.74864947132106 133.7823809840906 1.0479142439574622e-06 4.265755692605602e-07 -110.73148288198149 0.0 0.0 -3.1805546814635168e-15
0.00011928982712561265 95.20941162109375 -0.0007975391927175224 1.28548730942081 -10.722067728790648 -2.601500722285619 -3.530748703153447 11.210980133903899 -0.8527405978468607 -12.07309318046132 21.25417036369619 2.838863647914415 1.5902773407317584e-15 -3.1805546814635168e-15 4.4139062980501586e-32 -0.28296989003404377 15.205890246050458 -2.0167399398522696 -2.8614953688365006 5.666139015527836 -0.4475191371659924 4.3778062343331957e-35 6.212020862233431e-18 -8.075627120903461e-16 -2.907190336018206 17.030475099227353 -1.4708822704500648 -2.9843234742143494e-08 6.302803603626814e-08 3.0182513076177653 13.626980602969557 -2.9762875523135652 172.71129656516635 116.31275884283323 14.282718926498083 -158.89293719761196 1.21897054195593e-06 1.646584595209293e-06 108.40383908838433 -6.3611093629270335e-15 0.0 0.0 -130.80318224915715 -49.18748961421716 130.42721115086883 -5.224547870580172e-06 -1.945936528575647e-06 -110.75273221965595 0.0 0.0 1.7393658414253607e-15
0.00016565440455451608 95.2093734741211 -0.0007762911845929921 1.3849303120010452 -10.39491471631274 -1.5238886790909256 -3.6044839137243874 11.548845828683845 -0.9085899530897028 -10.667549420787443 20.161345544355303 2.1586530215039192 1.5902773407317582e-15 5.517382872562698e-33 3.9756933518293955e-16 0.029757122699141964 14.521130177865333 -2.064739773679612 -2.2861258785363168 5.49935943968735 -0.5424098740762756 -9.93923337957349e-17 -3.1060104311167152e-18 -2.3605679276487037e-16 -3.934390117254637 16.658969866289468 -1.2081817577575413 1.0758715730338341e-07 -2.2770875525095188e-07 4.222924916112958 13.897965602570267 -2.8313002852454314 171.98322910110815 115.31330200667159 14.094289072653673 -158.93200733049153 3.4013972875018634e-06 -3.8474646508131785e-07 108.89015101367416 0.0 0.0 0.0 -130.31540393253084 -48.73730143999363 128.98549918132326 2.098190363364427e-06 -2.1371432211652703e-06 -110.45211059176428 0.0 0.0 -1.3914926731402886e-15
0.00021828159515280277 95.2093505859375 -0.0007580718374811113 1.6139146069683086 -10.33796030887483 0.14007997190949564 -3.5580097545698486 12.033973054422828 -0.965219631377521 -9.58615262729075 18.92306606579849 1.6511518695264447 1.5902773407317584e-15 -2.4848083448933725e-17 3.4483642953516864e-34 0.33663418957797137 14.2387210051846 -2.113139970895162 -1.6108782946199824 5.626687606369653 -0.6565614979109012 0.0 0.0 4.286294394941067e-16 -4.824612331752126 16.831602554150034 -0.9742041490625597 1.635637711055338e-07 -6.06874362921658e-07 5.3862292581215145 13.892440700674015 -3.164020969380985 170.87196622609818 115.28280683315653 12.874029947742418 -158.949210433385 3.6255370427185916e-06 2.8937803348315045e-06 108.78565682102331 0.0 -1.5902773407317584e-15 0.0 -130.9902779374624 -47.678608639282196 128.19948240661742 9.880922644403714e-07 1.2878558556485632e-06 -111.74034260237295 -3.1805546814635164e-15 2.2069531490250793e-32 -7.951386703658791e-16
0.0002254601859021932 95.20927429199219 -0.000760747236199677 1.4275352770317153 -10.298313982293676 0.6538807019577727 -3.11552121042058 12.353708109676537 -0.9869432329967538 -8.80007424658345 17.87549864888658 1.3265634765424374 4.310455369189608e-35 1.2424041724466865e-17 -3.975693351829397e-16 0.9999910317225361 13.883698513296796 -2.111635521794857 -1.3943495891832527 6.13911328618491 -0.7625282990943726 -9.939233379573489e-17 3.879409832270648e-34 -4.47265502080807e-16 -5.446089599144077 16.83830071766268 -0.6609907034221222 1.428275447957534e-07 9.367634566642184e-08 6.036175002810936 14.410265555161002 -2.8328971463594104 169.88868633521275 115.17605994706788 11.742009796897204 -158.73480678352038 -4.92953669523948e-06 -1.0725725131227281e-06 109.4196107716178 0.0 -6.3611093629270335e-15 0.0 -129.84874290983367 -46.838479746128534 128.8225658089422 -6.764888374842888e-07 3.8144990846772005e-07 -112.31839716904953 -3.1805546814635168e-15 -4.4139062980501586e-32 1.5902773407317584e-15
0.0002536497195251286 95.20928192138672 -0.0007541417144238949 1.318144961697497 -10.365021540911563 1.2347063487522971 -2.6687887302131674 12.939542854634716 -1.0547316282255859 -8.251191307026206 17.006019310883936 1.0780596295406808 0.0 0.0 0.0 1.811449728255039 13.579453158645704 -2.1771905488185808 -1.6196133244188682 6.676761061848148 -0.8567139102228165 1.987846675914698e-16 1.5887243355162001e-15 -2.2363275104040355e-16 -6.184685139238716 16.853114702400738 -0.34577377763203404 3.5736810102035015e-07 1.817436561319255e-07 6.492649261648221 14.557578667022774 -2.708875309055469 169.4917099270334 115.23702828920578 9.416801034324312 -158.57280732457036 2.1457587512129744e-06 -1.0189298721710495e-06 110.32072109776885 0.0 0.0 -6.3611093629270335e-15 -129.22801493235403 -45.791517458121575 129.5142345911665 2.76001747317725e-06 -2.2818809314553523e-06 -112.29558873956424 0.0 0.0 -7.951386703658792e-16
0.00026901261298917234 95.20922088623047 -0.0007614085916429758 1.372170360917233 -10.572427839466421 0.5934371580744688 -2.70327321994877 13.523696093447313 -1.130001461505792 -8.103782167207301 15.79372917213369 0.9336400018828388 0.0 -3.1805546814635168e-15 0.0 2.078839580424156 13.753867183173668 -2.307894193058221 -1.368581315997502 7.036495641987182 -0.9843238953808159 0.0 0.0 9.939233379573487e-17 -7.153389722564096 16.71618129011472 -0.10926915956486163 -3.882141884175788e-08 -8.610398679862777e-08 6.964796639270129 13.84053636419886 -2.0008063982473163 169.8230103292087 114.6501549669972 8.609103402393101 -158.33283198573707 2.118321938582897e-06 1.5151088267877185e-07 110.38353455258297 3.531125038440127e-31 6.3611093629270335e-15 -6.3611093629270335e-15 -129.39513585602373 -46.48829250727734 129.60411765783613 -9.985227756041613e-07 -2.135238048114524e-06 -113.04884844030225 1.7655625192200634e-31 -6.361109362927035e-15 3.1805546814635176e-15
0.0002279443433508277 95.2091064453125 -0.0007634985959157348 1.13639555763304 -10.515149485848731 -0.7219735709934944 -2.674091602922028 13.549179135010773 -1.1433106179138055 -7.7485071537614 15.331629652174902 0.8004973937167645 -8.620910738379216e-35 -2.4848083448933725e-17 -3.975693351829396e-16 2.430838921137669 13.573180411683241 -2.3675645300677033 -1.150410724938441 7.308810103812809 -1.0981467191607313 -5.38806921148701e-36 -1.2424041724466861e-17 -4.9696166897867443e-17 -8.197539800672462 16.53359073584817 0.18378111388578502 2.7183822111201617e-07 -1.2948396571193712e-07 7.3077177843149785 13.098530499926603 -1.1779293146312888 170.57769089816523 113.71462201100991 7.962176345209638 -158.47441405519095 -1.0417900187599954e-06 -1.0200918789407162e-06 110.97534082537042 0.0 0.0 6.3611093629270335e-15 -129.2462700585741 -47.16446163005037 130.42304016949961 -4.715387894628241e-06 9.47053607458915e-07 -114.56845117425023 3.1805546814635164e-15 0.0 0.0
